<svg width="13" height="17" viewBox="0 0 13 17" fill="none" xmlns="http://www.w3.org/2000/svg">
<path fill-rule="evenodd" clip-rule="evenodd" d="M2.25657 8.589C3.49892 9.78083 4.30404 11.364 4.85842 12.5889H11.2425C11.3829 11.5659 11.675 10.6052 11.9671 9.64446C12.3725 8.31113 12.7778 6.97781 12.7778 5.47783C12.7778 2.47785 10.7871 0.144531 7.74244 0.144531C4.69778 0.144531 3.52676 2.70007 4.22937 7.03347C2.82415 5.36681 1.65312 5.03347 1.06761 5.58902C0.482102 6.14457 0.738171 7.13235 2.25657 8.589ZM4.75909 13.4779C4.11235 13.4779 3.58807 13.9371 3.58807 14.5035V15.1189C3.58807 15.6854 4.11235 16.1446 4.75909 16.1446H11.3168C11.9636 16.1446 12.4878 15.6854 12.4878 15.1189V14.5035C12.4878 13.9371 11.9636 13.4779 11.3168 13.4779H4.75909Z" fill="#131313" style="fill:#131313;fill:color(display-p3 0.0745 0.0745 0.0745);fill-opacity:1;"/>
</svg>
